<?xml version="1.0" encoding="UTF-8" standalone="no"?>
<svg
   xmlns:dc="http://purl.org/dc/elements/1.1/"
   xmlns:cc="http://creativecommons.org/ns#"
   xmlns:rdf="http://www.w3.org/1999/02/22-rdf-syntax-ns#"
   xmlns:svg="http://www.w3.org/2000/svg"
   xmlns="http://www.w3.org/2000/svg"
   xmlns:sodipodi="http://sodipodi.sourceforge.net/DTD/sodipodi-0.dtd"
   xmlns:inkscape="http://www.inkscape.org/namespaces/inkscape"
   width="210mm"
   height="297mm"
   viewBox="0 0 210 297"
   version="1.1"
   id="svg8"
   inkscape:version="1.0.1 (0767f8302a, 2020-10-17)"
   sodipodi:docname="portfolio-home.svg"
   inkscape:export-filename="/home/frank/Desktop/portfolio-svgs/portfolio-home.png"
   inkscape:export-xdpi="96"
   inkscape:export-ydpi="96">
  <defs
     id="defs2" />
  <sodipodi:namedview
     id="base"
     pagecolor="#ffffff"
     bordercolor="#666666"
     borderopacity="1.0"
     inkscape:pageopacity="0.0"
     inkscape:pageshadow="2"
     inkscape:zoom="0.49497475"
     inkscape:cx="298.64678"
     inkscape:cy="468.51742"
     inkscape:document-units="mm"
     inkscape:current-layer="layer1"
     inkscape:document-rotation="0"
     showgrid="false"
     inkscape:window-width="1298"
     inkscape:window-height="704"
     inkscape:window-x="68"
     inkscape:window-y="27"
     inkscape:window-maximized="1" />
  <metadata
     id="metadata5">
    <rdf:RDF>
      <cc:Work
         rdf:about="">
        <dc:format>image/svg+xml</dc:format>
        <dc:type
           rdf:resource="http://purl.org/dc/dcmitype/StillImage" />
        <dc:title></dc:title>
      </cc:Work>
    </rdf:RDF>
  </metadata>
  <g
     inkscape:label="Layer 1"
     inkscape:groupmode="layer"
     id="layer1">
    <ellipse
       style="fill:#091931;fill-opacity:1;fill-rule:evenodd;stroke-width:0.16101"
       id="path10"
       cx="105.87497"
       cy="142.58015"
       rx="72.443359"
       ry="71.638794" />
    <g
       id="g951"
       transform="matrix(0.18505344,0,0,0.22158557,20.576177,70.343787)">
      <ellipse
         cx="85.343941"
         cy="578.40955"
         rx="85"
         ry="6"
         fill="#d0cde1"
         id="ellipse839" />
      <ellipse
         cx="343.34393"
         cy="642.90955"
         rx="221"
         ry="10.5"
         fill="#d0cde1"
         id="ellipse841" />
      <polygon
         points="458.344,218.41 462.344,211.41 442.344,207.41 440.344,217.41 443.344,225.41 "
         fill="#6c63ff"
         id="polygon843" />
      <polygon
         points="458.344,218.41 462.344,211.41 442.344,207.41 440.344,217.41 443.344,225.41 "
         opacity="0.2"
         id="polygon845" />
      <circle
         cx="446.84393"
         cy="187.90956"
         r="26"
         fill="#ffb8b8"
         id="circle847" />
      <polygon
         points="450.844,203.91 424.844,187.91 403.844,222.91 434.844,240.91 "
         fill="#ffb8b8"
         id="polygon849" />
      <path
         d="m 561.984,352.20478 -27,-11 c 0,0 -41,7 -45,20 -4,13 -4,118 -4,118 0,0 -10,26 4,27 0,0 -4,6 0,7 4,1 45,0 61,5 16,5 48,9 48,4 v -9 c 0,0 7,-7 3,-19 -4,-12 -9,-38 -9,-38 0,0 30,-66 27,-74 -3,-8 -39.627,-32.73752 -39.627,-32.73752 z"
         transform="translate(-139.14005,-123.29522)"
         fill="#6c63ff"
         id="path851"
         style="fill:#f2f2f2" />
      <polygon
         points="370.844,346.91 360.844,355.91 361.844,363.91 375.844,346.91 "
         fill="#ffb8b8"
         id="polygon853" />
      <path
         d="m 561.984,352.20478 -29,-7 c 0,0 -6,-5 -6,-11 0,-6 9,-15 15,-21 a 5.53494,5.53494 0 0 1 4.02,-1.67005 c 5.94,-0.05 13.14,7.74006 13.14,7.74006 l -7.99,13.32995 -0.36,0.59 z"
         transform="translate(-139.14005,-123.29522)"
         fill="#6c63ff"
         id="path855"
         style="fill:#ffffff" />
      <path
         d="m 584.337,340.26347 17.147,-5.55869 c 0,0 5.5,21.5 -0.5,22.5 -6,1 -39,-2 -39,-2 z"
         transform="translate(-139.14005,-123.29522)"
         fill="#6c63ff"
         id="path857"
         style="fill:#f9f9f9" />
      <path
         d="m 491.984,508.20478 -13,74 c 0,0 -5,9 -3,13 2,4 3,4 0,6 -3,2 -7,0 -6,5 a 51.04342,51.04342 0 0 1 1,9 l -28,96 c 0,0 -18,8 -5,13 13,5 26,9 29,4 3,-5 0,-11 0,-11 l 46,-110 c 0,0 7,-10 7,-16 0,-6 23,-49 23,-49 0,0 1,43 2,46 1,3 -2,9 -2,13 0,4 -2,4 0,6 2,2 2,25 2,25 0,0 -12,89 -5,90 7,1 27,-1 27,-5 0,-4 -3,-5 -3,-5 l 13,-76 c 0,0 -1,-5 1,-9 2,-4 2,-4 2,-6 0,-2 -1,-3 0,-4 a 4.93754,4.93754 0 0 0 1,-3 c 0,0 -2,-6 -1,-7 1,-1 23,-76 16,-85 -7,-9 -104,-14 -104,-14 z"
         transform="translate(-139.14005,-123.29522)"
         fill="#2f2e41"
         id="path859" />
      <path
         d="m 540.984,719.20478 -7,16 c 0,0 -16,18 -4,22 12,4 16,3 16,3 0,0 5,1 5,3 0,2 40,17 43,4 3,-13 -31,-37 -31,-37 v -12 z"
         transform="translate(-139.14005,-123.29522)"
         fill="#2f2e41"
         id="path861" />
      <path
         d="m 463.84928,726.61089 1.51424,17.39847 c 0,0 9.40163,22.17227 -3.24739,22.12362 -12.64902,-0.0486 -16.119,-2.2756 -16.119,-2.2756 0,0 -5.05717,-0.65191 -5.69692,1.243 -0.63975,1.89491 -43.33621,3.31188 -42.02021,-9.96472 1.316,-13.2766 41.20659,-25.13994 41.20659,-25.13994 L 443.325,718.6262 Z"
         transform="translate(-139.14005,-123.29522)"
         fill="#2f2e41"
         id="path863" />
      <path
         d="m 560.66011,318.32235 c 1.606,-0.10777 2.67686,-1.85837 3.12129,-3.5239 0.44443,-1.66553 0.55756,-3.49031 1.46479,-4.92153 2.486,-3.92181 8.95008,-2.33769 11.57509,-6.153 1.61443,-2.34646 1.27653,-6.16723 3.60711,-7.66021 1.47173,-0.9428 3.34776,-0.45722 4.96944,0.13509 a 54.30716,54.30716 0 0 1 17.11591,10.19386 l 2.08805,-1.70011 2.6083,5.21428 c 1.01118,-1.21946 2.96144,-0.274 3.81,1.08163 0.84856,1.35563 1.2604,3.0882 2.47038,4.0756 1.92859,1.5738 4.94138,0.24083 6.10956,-2.0413 1.16818,-2.28213 0.97537,-5.072 0.57046,-7.6412 A 54.73664,54.73664 0 0 0 613.822,287.05973 l 2.38634,-1.43177 -3.08517,-0.44062 1.1807,-2.67875 -3.23175,-0.0378 1.27614,-2.28985 c -4.34441,1.49085 -8.8338,-1.23972 -12.98317,-3.27543 -6.94067,-3.40513 -14.74842,-5.03925 -22.28433,-3.77426 A 28.16811,28.16811 0 0 0 558.02727,285.508 c -3.28584,5.166 -5.18305,12.66746 -3.54049,18.854 1.49301,5.62336 8.01137,6.49864 6.17333,13.96035 z"
         transform="translate(-139.14005,-123.29522)"
         fill="#2f2e41"
         id="path865" />
      <path
         d="m 495.984,357.20478 c 0,0 -6,-1 -10,7 -4,8 -34,72 -19,92 15,20 29,26 29,26 l 3,1 15,-16 -5,-7 c 0,0 0,-7 -4,-8 -4,-1 -4,2 -5,-2 -1,-4 4,-1 -1,-5 -5,-4 -1,-6 -1,-6 z"
         transform="translate(-139.14005,-123.29522)"
         fill="#6c63ff"
         id="path867"
         style="fill:#f9f9f9" />
      <polygon
         points="452.844,358.41 462.844,367.41 461.844,375.41 447.844,358.41 "
         fill="#ffb8b8"
         id="polygon869" />
      <path
         d="m 600.484,378.70478 c 0,0 14,-7 18,1 4,8 31.5,68 16.5,88 -15,20 -29,26 -29,26 l -3,1 -15,-16 5,-7 c 0,0 0,-7 4,-8 4,-1 4,2 5,-2 1,-4 -4,-1 1,-5 5,-4 1,-6 1,-6 z"
         transform="translate(-139.14005,-123.29522)"
         fill="#6c63ff"
         id="path871"
         style="fill:#ffffff" />
      <polygon
         points="362.344,313.41 366.344,273.41 355.344,317.41 368.344,333.41 "
         opacity="0.2"
         id="polygon873"
         style="fill:#f9f9f9" />
      <path
         d="m 559.144,319.27479 -7.99,13.32995 c -5.02,-1.74 -5.44,-13.38995 -5.15,-21.07 5.94,-0.05 13.14,7.74005 13.14,7.74005 z"
         opacity="0.2"
         id="path875"
         style="fill:#ffffff"
         transform="translate(-139.14005,-123.29522)" />
      <path
         d="m 389.24816,738.971 c 0.17358,17.79415 -10.34427,24.10956 -23.39225,24.23685 q -0.45462,0.004 -0.905,-10e-4 -0.90726,-0.0107 -1.796,-0.0651 c -11.78438,-0.71893 -20.9982,-7.1609 -21.15964,-23.70942 -0.16706,-17.12566 21.50989,-38.95143 23.13581,-40.56545 l 0.003,-0.001 c 0.0618,-0.0615 0.0934,-0.0923 0.0934,-0.0923 0,0 23.84725,22.4055 24.02082,40.19824 z"
         transform="translate(-139.14005,-123.29522)"
         fill="#d0cde1"
         id="path877" />
      <path
         d="m 355.2587,653.138 c 0.12253,12.56057 -7.30184,17.01851 -16.51218,17.10836 q -0.32091,0.003 -0.63879,-9.4e-4 -0.64042,-0.008 -1.2678,-0.046 c -8.31838,-0.50748 -14.82226,-5.05475 -14.93621,-16.73606 -0.11793,-12.0887 15.18345,-27.49513 16.33116,-28.63444 l 0.002,-0.001 c 0.0436,-0.0434 0.0659,-0.0651 0.0659,-0.0651 0,0 16.83338,15.81561 16.9559,28.37521 z"
         transform="translate(-139.14005,-123.29522)"
         fill="#d0cde1"
         id="path879" />
      <ellipse
         cx="199.34393"
         cy="545.18427"
         rx="60"
         ry="4.2352901"
         fill="#d0cde1"
         id="ellipse881" />
      <rect
         x="524.96796"
         y="279.8107"
         width="396.75192"
         height="202"
         fill="#3f3d56"
         id="rect883" />
      <rect
         x="596.94507"
         y="347.82883"
         width="40.179779"
         height="3.34831"
         fill="#6c63ff"
         id="rect885"
         style="fill:#f9f9f9" />
      <rect
         x="650.51813"
         y="347.82883"
         width="40.179779"
         height="3.34831"
         fill="#6c63ff"
         id="rect887"
         style="fill:#f9f9f9" />
      <rect
         x="728.36639"
         y="378.80075"
         width="40.179779"
         height="3.34831"
         fill="#6c63ff"
         id="rect889"
         style="fill:#ffffff" />
      <rect
         x="782.77655"
         y="378.80075"
         width="40.179779"
         height="3.34831"
         fill="#6c63ff"
         id="rect891"
         style="fill:#ffffff" />
      <rect
         x="704.92822"
         y="347.82883"
         width="118.02809"
         height="3.34831"
         fill="#6c63ff"
         id="rect893"
         style="fill:#f9f9f9" />
      <rect
         x="596.94507"
         y="378.80075"
         width="118.02809"
         height="3.34831"
         fill="#6c63ff"
         id="rect895"
         style="fill:#ffffff" />
      <rect
         x="596.94507"
         y="409.77267"
         width="118.02809"
         height="3.34831"
         fill="#6c63ff"
         id="rect897"
         style="fill:#ffffff" />
      <rect
         x="740.92261"
         y="409.77267"
         width="82.033707"
         height="3.34831"
         fill="#6c63ff"
         id="rect899"
         style="fill:#ffffff" />
      <polygon
         points="588.48,336.521 577.172,347.829 588.48,359.136 585.652,361.964 571.516,347.829 585.652,333.693 "
         fill="#6c63ff"
         id="polygon901"
         style="fill:#f9f9f9" />
      <polygon
         points="858.208,401.813 861.036,398.985 875.172,413.12 861.036,427.257 858.208,424.429 869.516,413.12 "
         fill="#6c63ff"
         id="polygon903"
         style="fill:#f9f9f9" />
      <rect
         x="968.59125"
         y="533.99768"
         width="28.863609"
         height="4.0000601"
         transform="rotate(-73.13998,830.35353,568.12883)"
         fill="#6c63ff"
         id="rect905"
         style="fill:#ffffff" />
      <path
         d="m 231.95115,674.97664 74.0679,-110.14639 -73.91642,121.996 0.15457,12.39424 q -8.11088,0.0618 -16.06418,-0.27013 l 3.6736,-159.31973 -0.10065,-1.22909 0.13556,-0.23748 0.35161,-15.05475 -81.11309,-117.76675 81.01738,106.49915 0.28751,3.1821 2.77474,-120.37228 -70.05985,-122.09715 70.25938,100.95121 -0.73336,-249.38034 0.002,-0.83 0.0238,0.81631 4.65074,196.54523 63.85118,-79.83679 -63.64218,96.76873 1.39359,107.67021 58.75622,-105.082 -58.54025,120.91136 0.77576,59.87006 85.4474,-146.378 -85.18764,167.26411 z"
         transform="translate(-139.14005,-123.29522)"
         fill="#d0cde1"
         id="path907" />
    </g>
  </g>
</svg>
